<svg width="14" height="18" viewBox="0 0 14 18" fill="none" xmlns="http://www.w3.org/2000/svg">
<path d="M6.648 17.288C5.48 17.288 4.32 17.136 3.168 16.832C2.032 16.512 1.056 16.064 0.24 15.488L1.776 12.512C2.416 12.976 3.152 13.344 3.984 13.616C4.832 13.888 5.688 14.024 6.552 14.024C7.528 14.024 8.296 13.832 8.856 13.448C9.416 13.064 9.696 12.528 9.696 11.84C9.696 11.408 9.584 11.024 9.36 10.688C9.136 10.352 8.736 10.096 8.16 9.92C7.6 9.744 6.808 9.656 5.784 9.656H1.488L2.352 0.199999H12.6V3.32H3.744L5.76 1.544L5.16 8.288L3.144 6.512H6.696C8.36 6.512 9.696 6.744 10.704 7.208C11.728 7.656 12.472 8.272 12.936 9.056C13.4 9.84 13.632 10.728 13.632 11.72C13.632 12.712 13.384 13.632 12.888 14.48C12.392 15.312 11.624 15.992 10.584 16.52C9.56 17.032 8.248 17.288 6.648 17.288Z" fill="white"/>
</svg>
