<svg width="15" height="19" viewBox="0 0 15 19" fill="none" xmlns="http://www.w3.org/2000/svg">
<path d="M8.448 18.288C6.912 18.288 5.576 17.968 4.44 17.328C3.32 16.688 2.456 15.752 1.848 14.52C1.24 13.288 0.936 11.768 0.936 9.96C0.936 8.024 1.296 6.384 2.016 5.04C2.752 3.696 3.76 2.672 5.04 1.968C6.336 1.264 7.824 0.912 9.504 0.912C10.4 0.912 11.256 1.008 12.072 1.2C12.888 1.392 13.592 1.68 14.184 2.064L12.744 4.92C12.28 4.6 11.784 4.384 11.256 4.272C10.728 4.144 10.176 4.08 9.6 4.08C8.144 4.08 6.992 4.52 6.144 5.4C5.296 6.28 4.872 7.584 4.872 9.312C4.872 9.6 4.872 9.92 4.872 10.272C4.888 10.624 4.936 10.976 5.016 11.328L3.936 10.32C4.24 9.696 4.632 9.176 5.112 8.76C5.592 8.328 6.16 8.008 6.816 7.8C7.488 7.576 8.224 7.464 9.024 7.464C10.112 7.464 11.088 7.68 11.952 8.112C12.816 8.544 13.504 9.152 14.016 9.936C14.544 10.72 14.808 11.64 14.808 12.696C14.808 13.832 14.52 14.824 13.944 15.672C13.384 16.504 12.624 17.152 11.664 17.616C10.72 18.064 9.648 18.288 8.448 18.288ZM8.232 15.384C8.776 15.384 9.256 15.288 9.672 15.096C10.104 14.888 10.44 14.592 10.68 14.208C10.92 13.824 11.04 13.384 11.04 12.888C11.04 12.12 10.776 11.512 10.248 11.064C9.736 10.6 9.048 10.368 8.184 10.368C7.608 10.368 7.104 10.48 6.672 10.704C6.24 10.912 5.896 11.208 5.64 11.592C5.4 11.96 5.28 12.392 5.28 12.888C5.28 13.368 5.4 13.8 5.64 14.184C5.88 14.552 6.216 14.848 6.648 15.072C7.08 15.28 7.608 15.384 8.232 15.384Z" fill="white"/>
</svg>
