<svg width="15" height="18" viewBox="0 0 15 18" fill="none" xmlns="http://www.w3.org/2000/svg">
<path d="M7.384 17.288C6.216 17.288 5.056 17.136 3.904 16.832C2.752 16.512 1.776 16.064 0.976 15.488L2.488 12.512C3.128 12.976 3.872 13.344 4.72 13.616C5.568 13.888 6.424 14.024 7.288 14.024C8.264 14.024 9.032 13.832 9.592 13.448C10.152 13.064 10.432 12.536 10.432 11.864C10.432 11.224 10.184 10.72 9.688 10.352C9.192 9.984 8.392 9.8 7.288 9.8H5.512V7.232L10.192 1.928L10.624 3.32H1.816V0.199999H13.576V2.72L8.92 8.024L6.952 6.896H8.08C10.144 6.896 11.704 7.36 12.76 8.288C13.816 9.216 14.344 10.408 14.344 11.864C14.344 12.808 14.096 13.696 13.6 14.528C13.104 15.344 12.344 16.008 11.32 16.52C10.296 17.032 8.984 17.288 7.384 17.288Z" fill="white"/>
</svg>
