<svg width="14" height="18" viewBox="0 0 14 18" fill="none" xmlns="http://www.w3.org/2000/svg">
<path d="M0.792 18V15.48L7.272 9.36C7.784 8.896 8.16 8.48 8.4 8.112C8.64 7.744 8.8 7.408 8.88 7.104C8.976 6.8 9.024 6.52 9.024 6.264C9.024 5.592 8.792 5.08 8.328 4.728C7.88 4.36 7.216 4.176 6.336 4.176C5.632 4.176 4.976 4.312 4.368 4.584C3.776 4.856 3.272 5.28 2.856 5.856L0.024 4.032C0.664 3.072 1.56 2.312 2.712 1.752C3.864 1.192 5.192 0.912 6.696 0.912C7.944 0.912 9.032 1.12 9.96 1.536C10.904 1.936 11.632 2.504 12.144 3.24C12.672 3.976 12.936 4.856 12.936 5.88C12.936 6.424 12.864 6.968 12.72 7.512C12.592 8.04 12.32 8.6 11.904 9.192C11.504 9.784 10.912 10.448 10.128 11.184L4.752 16.248L4.008 14.832H13.488V18H0.792Z" fill="white"/>
</svg>
